<?xml version="1.0" encoding="utf-8"?>
<!-- Generator: Adobe Illustrator 25.4.1, SVG Export Plug-In . SVG Version: 6.00 Build 0)  -->
<svg version="1.2" baseProfile="tiny" id="Layer_1" xmlns="http://www.w3.org/2000/svg" xmlns:xlink="http://www.w3.org/1999/xlink"
	 x="0px" y="0px" viewBox="0 0 194.4 194.4" overflow="visible" xml:space="preserve">
<circle fill="#FFFCF7" cx="97.2" cy="97.2" r="70.9"/>
<path fill="#1C2826" d="M97.2,0C43.5,0,0,43.5,0,97.2s43.5,97.2,97.2,97.2s97.2-43.5,97.2-97.2l0,0C194.4,43.5,150.9,0,97.2,0z
	 M47.2,100.6c-6.9-20,1.6-45.7,20.7-58.8c22.6-15.5,55.7-10.1,70.6,11.7c1.3,2,5.2,7.1,2.6,6.4c-62.3-17.3-81.2,23.1-87.4,40.7
	c-0.6,1.8-2.6,2.7-4.3,2.1C48.3,102.3,47.6,101.6,47.2,100.6L47.2,100.6z M67.2,100.1c8.1-5.7,27.1-15.3,54-5
	c12.3,5.4,13.6,8.9,7.2,20.3c-5.6,10.1-21.8,27.1-30.4,24.4c-15.6-5-27.6-22.8-32.6-31.4C63.7,105.6,64.5,102,67.2,100.1L67.2,100.1
	z M56.5,119.9c-0.1-1.5,1.1-2.7,2.5-2.7c0.9,0,1.8,0.4,2.3,1.2c6.5,10.1,14.8,18.8,24.6,25.8c1.2,0.8,1.5,2.5,0.6,3.7
	c-0.5,0.7-1.2,1.1-2.1,1.1c-5.8,0-11.4-1.8-16-5.3C62.1,138.8,56.8,129.2,56.5,119.9z M140.8,122.2c-3.1,11.1-9.2,26.4-21.1,33.7
	s-26.2,7-38.5,1.3l0,0c-0.6-0.3-0.8-0.9-0.6-1.5c0.2-0.4,0.6-0.7,1.1-0.7c2.3,0,4.7-0.2,7-0.5c8.1-1.1,15.9-3.9,23-8.1
	c10.4-6.1,18.8-15.1,25.3-25.3l0.3-0.5c0.7-0.8,2-0.9,2.8-0.2C140.6,121,140.8,121.6,140.8,122.2z M146.1,102.1
	c-29.3-27.5-60.5-21-74-15.1c-1,0.5-2.1,0-2.6-0.9c-0.3-0.7-0.2-1.5,0.3-2.1c14.6-18.2,38.8-25.3,73.3-16
	C150.4,69.9,151.5,107.1,146.1,102.1z"/>
</svg>
